<svg xmlns="http://www.w3.org/2000/svg" xmlns:xlink="http://www.w3.org/1999/xlink" width="80" zoomAndPan="magnify" viewBox="0 0 60 60" height="80" preserveAspectRatio="xMidYMid meet" version="1.0"><defs><clipPath id="8bde643e7c"><path d="M 11.28125 11.28125 L 48.78125 11.28125 L 48.78125 48.78125 L 11.28125 48.78125 Z M 11.28125 11.28125 " clip-rule="nonzero"/></clipPath></defs><g clip-path="url(#8bde643e7c)"><path fill="#f03c2e" d="M 48.070312 28.359375 L 31.699219 11.988281 C 31.472656 11.761719 31.210938 11.585938 30.917969 11.464844 C 30.621094 11.339844 30.3125 11.28125 29.992188 11.28125 C 29.671875 11.28125 29.363281 11.339844 29.066406 11.464844 C 28.773438 11.585938 28.511719 11.761719 28.285156 11.988281 L 24.886719 15.386719 L 29.199219 19.699219 C 30.203125 19.347656 31.351562 19.585938 32.148438 20.386719 C 32.539062 20.773438 32.792969 21.238281 32.914062 21.773438 C 33.039062 22.308594 33.011719 22.835938 32.832031 23.355469 L 36.988281 27.511719 C 37.992188 27.164062 39.152344 27.386719 39.957031 28.191406 C 40.226562 28.460938 40.433594 28.773438 40.578125 29.125 C 40.726562 29.476562 40.796875 29.84375 40.796875 30.226562 C 40.796875 30.605469 40.726562 30.972656 40.578125 31.328125 C 40.433594 31.679688 40.226562 31.988281 39.957031 32.257812 C 39.6875 32.527344 39.375 32.734375 39.023438 32.882812 C 38.671875 33.027344 38.304688 33.101562 37.921875 33.101562 C 37.542969 33.101562 37.175781 33.027344 36.824219 32.882812 C 36.46875 32.734375 36.160156 32.527344 35.890625 32.257812 C 35.046875 31.414062 34.835938 30.171875 35.265625 29.132812 L 31.386719 25.253906 L 31.386719 35.457031 C 31.671875 35.597656 31.925781 35.777344 32.148438 36 C 32.417969 36.269531 32.625 36.582031 32.773438 36.933594 C 32.917969 37.285156 32.992188 37.652344 32.992188 38.03125 C 32.992188 38.414062 32.917969 38.78125 32.773438 39.132812 C 32.625 39.484375 32.417969 39.792969 32.148438 40.0625 C 31.878906 40.332031 31.570312 40.542969 31.21875 40.6875 C 30.863281 40.832031 30.5 40.90625 30.117188 40.90625 C 29.738281 40.90625 29.371094 40.832031 29.019531 40.6875 C 28.664062 40.542969 28.355469 40.332031 28.085938 40.0625 C 27.816406 39.796875 27.609375 39.484375 27.460938 39.132812 C 27.316406 38.78125 27.242188 38.414062 27.242188 38.03125 C 27.242188 37.652344 27.316406 37.285156 27.460938 36.933594 C 27.609375 36.582031 27.816406 36.269531 28.085938 36 C 28.363281 35.722656 28.671875 35.515625 29.027344 35.375 L 29.027344 25.078125 C 28.683594 24.9375 28.363281 24.730469 28.085938 24.449219 C 27.671875 24.039062 27.410156 23.546875 27.296875 22.972656 C 27.183594 22.402344 27.242188 21.847656 27.464844 21.308594 L 23.210938 17.058594 L 11.984375 28.273438 C 11.757812 28.5 11.585938 28.757812 11.460938 29.054688 C 11.339844 29.351562 11.277344 29.660156 11.277344 29.980469 C 11.277344 30.300781 11.339844 30.609375 11.460938 30.902344 C 11.585938 31.199219 11.757812 31.460938 11.984375 31.6875 L 28.359375 48.058594 C 28.585938 48.285156 28.847656 48.460938 29.144531 48.582031 C 29.4375 48.703125 29.746094 48.765625 30.066406 48.765625 C 30.386719 48.765625 30.695312 48.703125 30.992188 48.582031 C 31.285156 48.460938 31.546875 48.285156 31.773438 48.058594 L 48.070312 31.789062 C 48.296875 31.5625 48.472656 31.300781 48.597656 31.003906 C 48.71875 30.707031 48.78125 30.398438 48.78125 30.078125 C 48.78125 29.757812 48.71875 29.449219 48.597656 29.15625 C 48.472656 28.859375 48.296875 28.597656 48.070312 28.371094 " fill-opacity="1" fill-rule="nonzero"/></g></svg>