<svg xmlns="http://www.w3.org/2000/svg" xmlns:xlink="http://www.w3.org/1999/xlink" width="80" zoomAndPan="magnify" viewBox="0 0 60 60" height="80" preserveAspectRatio="xMidYMid meet" version="1.0"><defs><clipPath id="b83ae270b3"><path d="M 9.238281 9.238281 L 50.488281 9.238281 L 50.488281 50.488281 L 9.238281 50.488281 Z M 9.238281 9.238281 " clip-rule="nonzero"/></clipPath></defs><g clip-path="url(#b83ae270b3)"><path fill="#000000" d="M 29.863281 9.238281 C 18.472656 9.238281 9.238281 18.472656 9.238281 29.863281 C 9.238281 41.253906 18.472656 50.488281 29.863281 50.488281 C 41.253906 50.488281 50.488281 41.253906 50.488281 29.863281 C 50.488281 18.472656 41.253906 9.238281 29.863281 9.238281 Z M 29.863281 48.925781 C 19.332031 48.925781 10.796875 40.390625 10.796875 29.863281 C 10.796875 19.332031 19.332031 10.796875 29.863281 10.796875 C 40.390625 10.796875 48.925781 19.332031 48.925781 29.863281 C 48.925781 40.390625 40.390625 48.925781 29.863281 48.925781 Z M 29.863281 48.925781 " fill-opacity="1" fill-rule="nonzero"/></g><path fill="#000000" d="M 27.441406 39.972656 C 26.921875 40.019531 26.511719 40.078125 26.09375 40.097656 C 23.742188 40.207031 22 39.28125 20.941406 37.117188 C 20.605469 36.429688 20.175781 35.777344 19.726562 35.152344 C 19.457031 34.78125 19.082031 34.476562 18.730469 34.164062 L 18.726562 34.164062 C 18.511719 33.972656 18.605469 33.617188 18.890625 33.570312 C 19.222656 33.515625 19.53125 33.574219 19.835938 33.652344 C 20.78125 33.890625 21.386719 34.5625 21.871094 35.363281 C 22.96875 37.179688 24.851562 37.9375 26.890625 37.394531 C 27.234375 37.304688 27.386719 37.15625 27.464844 36.777344 C 27.550781 36.335938 27.671875 35.902344 27.800781 35.460938 C 27.835938 35.328125 27.847656 35.195312 27.832031 35.058594 C 27.8125 34.925781 27.769531 34.796875 27.703125 34.679688 C 27.632812 34.558594 27.542969 34.460938 27.433594 34.378906 C 27.324219 34.296875 27.199219 34.242188 27.066406 34.210938 L 27.054688 34.207031 C 24.941406 33.699219 23.113281 32.757812 21.9375 30.824219 C 21.308594 29.792969 20.996094 28.65625 21.011719 27.46875 C 21.03125 26.125 21.152344 24.773438 21.304688 23.4375 C 21.414062 22.496094 21.851562 21.660156 22.527344 20.984375 C 22.761719 20.746094 22.785156 20.550781 22.667969 20.242188 C 22.203125 18.992188 22.285156 17.738281 22.699219 16.484375 C 22.816406 16.128906 22.980469 16.078125 23.320312 16.183594 C 24.367188 16.515625 25.148438 17.195312 25.835938 18.011719 L 25.84375 18.023438 C 26.019531 18.234375 26.242188 18.378906 26.503906 18.453125 C 26.769531 18.53125 27.035156 18.527344 27.296875 18.441406 C 29.472656 17.730469 32.769531 17.71875 34.820312 18.425781 C 35.085938 18.515625 35.351562 18.523438 35.617188 18.445312 C 35.886719 18.371094 36.109375 18.226562 36.289062 18.011719 L 36.296875 18.003906 C 36.984375 17.1875 37.769531 16.511719 38.816406 16.179688 C 39.167969 16.070312 39.316406 16.15625 39.425781 16.496094 C 39.835938 17.75 39.90625 18.996094 39.464844 20.261719 C 39.402344 20.441406 39.402344 20.75 39.515625 20.863281 C 40.453125 21.816406 40.863281 22.996094 40.96875 24.277344 C 41.070312 25.515625 41.179688 26.773438 41.0625 28.003906 C 40.765625 31.199219 38.820312 33.058594 35.867188 33.984375 C 35.613281 34.066406 35.359375 34.132812 35.09375 34.191406 C 34.957031 34.226562 34.832031 34.285156 34.71875 34.371094 C 34.605469 34.457031 34.515625 34.5625 34.449219 34.683594 C 34.378906 34.808594 34.339844 34.941406 34.328125 35.082031 C 34.316406 35.226562 34.332031 35.363281 34.378906 35.496094 C 34.78125 36.664062 34.722656 37.910156 34.714844 39.148438 C 34.714844 39.429688 34.710938 39.714844 34.710938 40 C 34.710938 40.476562 34.617188 40.933594 34.4375 41.375 C 34.253906 41.8125 33.992188 42.203125 33.65625 42.539062 C 33.320312 42.875 32.929688 43.132812 32.492188 43.316406 C 32.050781 43.496094 31.59375 43.585938 31.117188 43.585938 L 31.035156 43.585938 C 30.558594 43.585938 30.101562 43.496094 29.660156 43.3125 C 29.21875 43.132812 28.832031 42.871094 28.492188 42.535156 C 28.15625 42.199219 27.898438 41.808594 27.714844 41.367188 C 27.53125 40.929688 27.441406 40.46875 27.441406 39.992188 Z M 27.441406 39.972656 " fill-opacity="1" fill-rule="nonzero"/></svg>