<svg xmlns="http://www.w3.org/2000/svg" xmlns:xlink="http://www.w3.org/1999/xlink" width="80" zoomAndPan="magnify" viewBox="0 0 60 60" height="80" preserveAspectRatio="xMidYMid meet" version="1.0"><defs><clipPath id="498c599388"><path d="M 9.074219 9.074219 L 51.074219 9.074219 L 51.074219 51.074219 L 9.074219 51.074219 Z M 9.074219 9.074219 " clip-rule="nonzero"/></clipPath></defs><g clip-path="url(#498c599388)"><path fill="#eee400" d="M 41.265625 47.78125 C 37.601562 47.78125 35.230469 46.035156 34.074219 43.75 L 37.289062 41.890625 C 38.136719 43.273438 39.234375 44.285156 41.179688 44.285156 C 42.8125 44.285156 43.855469 43.46875 43.855469 42.339844 C 43.855469 40.644531 41.59375 39.980469 39.996094 39.296875 C 37.148438 38.082031 35.257812 36.5625 35.257812 33.347656 C 35.257812 30.386719 37.511719 28.132812 41.039062 28.132812 C 43.546875 28.132812 45.351562 29.003906 46.648438 31.289062 L 43.574219 33.261719 C 42.898438 32.050781 42.167969 31.570312 41.039062 31.570312 C 39.882812 31.570312 39.148438 32.304688 39.148438 33.261719 C 39.148438 34.445312 39.878906 34.925781 41.574219 35.660156 C 45.121094 37.179688 47.804688 38.375 47.804688 42.285156 C 47.804688 45.835938 45.015625 47.78125 41.265625 47.78125 Z M 32.175781 41.832031 C 32.175781 45.921875 29.65625 48.082031 26.160156 48.082031 C 23.003906 48.082031 21.109375 46.875 20.179688 44.773438 L 20.125 44.773438 L 23.335938 42.53125 C 23.957031 43.628906 24.515625 44.40625 25.867188 44.40625 C 27.164062 44.40625 27.976562 43.75 27.976562 41.777344 L 27.976562 27.976562 L 32.175781 27.976562 Z M 9.074219 51.074219 L 51.074219 51.074219 L 51.074219 9.074219 L 9.074219 9.074219 Z M 9.074219 51.074219 " fill-opacity="1" fill-rule="evenodd"/></g></svg>