<svg xmlns="http://www.w3.org/2000/svg" xmlns:xlink="http://www.w3.org/1999/xlink" width="80" zoomAndPan="magnify" viewBox="0 0 60 60" height="80" preserveAspectRatio="xMidYMid meet" version="1.0"><defs><clipPath id="8166c4a777"><path d="M 19.078125 6 L 40.828125 6 L 40.828125 48 L 19.078125 48 Z M 19.078125 6 " clip-rule="nonzero"/></clipPath></defs><g clip-path="url(#8166c4a777)"><path fill="#689f38" d="M 40.824219 32.183594 C 40.824219 18 29.953125 6 29.953125 6 C 29.953125 6 19.085938 18 19.085938 32.183594 C 19.085938 43.851562 26.441406 46.65625 29.046875 47.285156 L 29.953125 13.636719 L 30.863281 47.285156 C 33.46875 46.65625 40.824219 43.851562 40.824219 32.183594 Z M 40.824219 32.183594 " fill-opacity="1" fill-rule="nonzero"/></g><path fill="#689f38" d="M 29.046875 47.285156 L 28.867188 54 L 31.042969 54 L 30.863281 47.285156 C 30.300781 47.417969 29.953125 47.453125 29.953125 47.453125 C 29.953125 47.453125 29.609375 47.417969 29.046875 47.285156 Z M 29.046875 47.285156 " fill-opacity="1" fill-rule="nonzero"/></svg>