<svg xmlns="http://www.w3.org/2000/svg" xmlns:xlink="http://www.w3.org/1999/xlink" width="80" zoomAndPan="magnify" viewBox="0 0 60 60" height="80" preserveAspectRatio="xMidYMid meet" version="1.0"><defs><clipPath id="38598129e5"><path d="M 6.375 20.167969 L 53.625 20.167969 L 53.625 39.667969 L 6.375 39.667969 Z M 6.375 20.167969 " clip-rule="nonzero"/></clipPath></defs><path fill="#c53735" d="M 27.375 25.84375 L 30 25.84375 L 30 31.140625 L 27.375 31.140625 Z M 27.375 25.84375 " fill-opacity="1" fill-rule="nonzero"/><g clip-path="url(#38598129e5)"><path fill="#c53735" d="M 53.625 20.546875 L 6.375 20.546875 L 6.375 36.441406 L 19.5 36.441406 L 19.5 39.09375 L 30 39.09375 L 30 36.441406 L 53.625 36.441406 Z M 19.5 33.792969 L 16.875 33.792969 L 16.875 25.84375 L 14.25 25.84375 L 14.25 33.792969 L 9 33.792969 L 9 23.195312 L 19.5 23.195312 Z M 32.625 33.792969 L 27.375 33.792969 L 27.375 36.441406 L 22.125 36.441406 L 22.125 23.195312 L 32.625 23.195312 Z M 51 33.792969 L 48.375 33.792969 L 48.375 25.84375 L 45.75 25.84375 L 45.75 33.792969 L 43.125 33.792969 L 43.125 25.84375 L 40.5 25.84375 L 40.5 33.792969 L 35.25 33.792969 L 35.25 23.195312 L 51 23.195312 Z M 51 33.792969 " fill-opacity="1" fill-rule="nonzero"/></g></svg>