<svg xmlns="http://www.w3.org/2000/svg" xmlns:xlink="http://www.w3.org/1999/xlink" width="80" zoomAndPan="magnify" viewBox="0 0 60 60" height="80" preserveAspectRatio="xMidYMid meet" version="1.0"><defs><clipPath id="550b6f696e"><path d="M 8.148438 11 L 51.648438 11 L 51.648438 49 L 8.148438 49 Z M 8.148438 11 " clip-rule="nonzero"/></clipPath></defs><path fill="#53c1de" d="M 33.78125 29.8125 C 33.78125 27.738281 32.042969 26.054688 29.898438 26.054688 C 27.753906 26.054688 26.015625 27.738281 26.015625 29.8125 C 26.015625 31.886719 27.753906 33.566406 29.898438 33.566406 C 32.042969 33.566406 33.78125 31.886719 33.78125 29.8125 Z M 33.78125 29.8125 " fill-opacity="1" fill-rule="nonzero"/><g clip-path="url(#550b6f696e)"><path fill="#53c1de" d="M 42.515625 22.839844 C 43.335938 19.617188 44.367188 13.640625 40.730469 11.617188 C 37.113281 9.597656 32.40625 13.464844 29.917969 15.785156 C 27.441406 13.488281 22.601562 9.636719 18.96875 11.671875 C 15.351562 13.695312 16.464844 19.570312 17.304688 22.8125 C 13.933594 23.738281 8.148438 25.734375 8.148438 29.8125 C 8.148438 33.875 13.925781 36.046875 17.277344 36.972656 C 16.4375 40.234375 15.378906 46.027344 19 48.046875 C 22.644531 50.078125 27.46875 46.320312 29.980469 43.972656 C 32.480469 46.308594 37.144531 50.089844 40.761719 48.066406 C 44.390625 46.035156 43.445312 40.136719 42.609375 36.875 C 45.859375 35.949219 51.648438 33.824219 51.648438 29.8125 C 51.648438 25.773438 45.835938 23.761719 42.515625 22.839844 Z M 42.101562 35.148438 C 41.550781 33.464844 40.808594 31.671875 39.898438 29.820312 C 40.765625 28.011719 41.480469 26.246094 42.015625 24.570312 C 44.449219 25.253906 49.789062 26.8125 49.789062 29.8125 C 49.789062 32.839844 44.667969 34.414062 42.101562 35.148438 Z M 39.832031 46.511719 C 37.132812 48.019531 33.121094 44.40625 31.273438 42.6875 C 32.5 41.390625 33.722656 39.882812 34.917969 38.210938 C 37.023438 38.03125 39.007812 37.734375 40.8125 37.332031 C 41.402344 39.640625 42.542969 44.992188 39.832031 46.511719 Z M 19.929688 46.488281 C 17.226562 44.984375 18.460938 39.8125 19.082031 37.414062 C 20.863281 37.792969 22.835938 38.066406 24.941406 38.234375 C 26.144531 39.871094 27.40625 41.375 28.675781 42.691406 C 27.109375 44.160156 22.640625 48 19.929688 46.488281 Z M 10.007812 29.8125 C 10.007812 26.773438 15.316406 25.222656 17.804688 24.542969 C 18.347656 26.253906 19.0625 28.046875 19.925781 29.855469 C 19.050781 31.691406 18.328125 33.511719 17.777344 35.242188 C 15.402344 34.585938 10.007812 32.851562 10.007812 29.8125 Z M 19.898438 13.226562 C 22.609375 11.707031 26.816406 15.402344 28.617188 17.066406 C 27.351562 18.378906 26.105469 19.871094 24.910156 21.5 C 22.863281 21.683594 20.90625 21.976562 19.105469 22.371094 C 18.429688 19.757812 17.191406 14.742188 19.898438 13.226562 Z M 36.25 23.453125 C 37.636719 23.621094 38.964844 23.847656 40.214844 24.121094 C 39.839844 25.285156 39.371094 26.496094 38.824219 27.742188 C 38.023438 26.28125 37.167969 24.847656 36.25 23.453125 Z M 29.917969 18.351562 C 30.777344 19.246094 31.636719 20.25 32.480469 21.335938 C 30.765625 21.257812 29.050781 21.257812 27.339844 21.335938 C 28.183594 20.257812 29.050781 19.257812 29.917969 18.351562 Z M 20.992188 27.742188 C 20.449219 26.5 19.988281 25.28125 19.609375 24.101562 C 20.847656 23.835938 22.171875 23.613281 23.550781 23.449219 C 22.628906 24.839844 21.773438 26.273438 20.992188 27.742188 Z M 23.589844 36.300781 C 22.167969 36.148438 20.824219 35.941406 19.582031 35.679688 C 19.964844 34.480469 20.441406 33.234375 20.992188 31.96875 C 21.789062 33.449219 22.65625 34.898438 23.589844 36.300781 Z M 29.972656 41.398438 C 29.089844 40.480469 28.210938 39.464844 27.355469 38.371094 C 29.074219 38.4375 30.800781 38.4375 32.523438 38.363281 C 31.675781 39.476562 30.820312 40.492188 29.972656 41.398438 Z M 38.839844 31.902344 C 39.421875 33.183594 39.910156 34.421875 40.300781 35.601562 C 39.039062 35.878906 37.679688 36.105469 36.242188 36.269531 C 37.171875 34.851562 38.039062 33.394531 38.839844 31.902344 Z M 33.882812 36.488281 C 31.246094 36.671875 28.597656 36.667969 25.960938 36.503906 C 24.460938 34.386719 23.128906 32.164062 21.976562 29.855469 C 23.125 27.550781 24.445312 25.332031 25.9375 23.21875 C 28.574219 23.027344 31.230469 23.023438 33.867188 23.21875 C 35.34375 25.332031 36.667969 27.546875 37.839844 29.828125 C 36.679688 32.132812 35.351562 34.355469 33.882812 36.488281 Z M 39.800781 13.171875 C 42.515625 14.683594 41.308594 20.054688 40.714844 22.390625 C 38.910156 21.988281 36.949219 21.6875 34.898438 21.5 C 33.703125 19.855469 32.464844 18.359375 31.222656 17.066406 C 33.042969 15.367188 37.117188 11.675781 39.800781 13.171875 Z M 39.800781 13.171875 " fill-opacity="1" fill-rule="evenodd"/></g></svg>