<svg xmlns="http://www.w3.org/2000/svg" xmlns:xlink="http://www.w3.org/1999/xlink" width="80" zoomAndPan="magnify" viewBox="0 0 60 60" height="80" preserveAspectRatio="xMidYMid meet" version="1.0"><defs><clipPath id="95431648c7"><path d="M 6.375 12 L 53.625 12 L 53.625 48 L 6.375 48 Z M 6.375 12 " clip-rule="nonzero"/></clipPath></defs><g clip-path="url(#95431648c7)"><path fill="#cf649a" d="M 46.957031 32.835938 C 45.320312 32.84375 43.902344 33.234375 42.714844 33.820312 C 42.277344 32.953125 41.839844 32.195312 41.765625 31.632812 C 41.683594 30.976562 41.582031 30.574219 41.683594 29.789062 C 41.78125 29.007812 42.242188 27.894531 42.242188 27.804688 C 42.230469 27.722656 42.140625 27.320312 41.199219 27.3125 C 40.257812 27.304688 39.445312 27.492188 39.351562 27.742188 C 39.1875 28.195312 39.058594 28.660156 38.960938 29.136719 C 38.796875 29.992188 37.078125 33.027344 36.097656 34.621094 C 35.777344 34.003906 35.503906 33.457031 35.449219 33.019531 C 35.367188 32.363281 35.265625 31.960938 35.367188 31.175781 C 35.46875 30.394531 35.925781 29.28125 35.925781 29.191406 C 35.917969 29.109375 35.824219 28.707031 34.882812 28.699219 C 33.941406 28.691406 33.128906 28.878906 33.039062 29.128906 C 32.945312 29.375 32.84375 29.957031 32.644531 30.523438 C 32.453125 31.085938 30.167969 36.15625 29.574219 37.476562 C 29.273438 38.152344 29.007812 38.691406 28.816406 39.054688 C 28.621094 39.417969 28.804688 39.082031 28.789062 39.117188 L 28.53125 39.601562 L 28.53125 39.609375 C 28.402344 39.839844 28.265625 40.058594 28.203125 40.058594 C 28.15625 40.058594 28.066406 39.445312 28.222656 38.609375 C 28.558594 36.847656 29.382812 34.105469 29.371094 34.003906 C 29.371094 33.960938 29.527344 33.476562 28.84375 33.230469 C 28.175781 32.984375 27.9375 33.394531 27.882812 33.394531 C 27.828125 33.394531 27.78125 33.539062 27.78125 33.539062 C 27.78125 33.539062 28.523438 30.449219 26.367188 30.449219 C 25.011719 30.449219 23.148438 31.917969 22.226562 33.257812 L 17.566406 35.800781 L 17.464844 35.691406 C 14.851562 32.90625 10.015625 30.9375 10.21875 27.203125 C 10.292969 25.84375 10.765625 22.261719 19.503906 17.921875 C 26.65625 14.367188 32.386719 15.34375 33.382812 17.511719 C 34.800781 20.609375 30.324219 26.371094 22.882812 27.203125 C 20.050781 27.523438 18.5625 26.429688 18.1875 26.019531 C 17.792969 25.589844 17.738281 25.570312 17.59375 25.652344 C 17.355469 25.78125 17.5 26.164062 17.59375 26.390625 C 17.8125 26.964844 18.726562 27.988281 20.277344 28.496094 C 21.640625 28.945312 24.96875 29.191406 28.988281 27.640625 C 33.492188 25.898438 37.011719 21.070312 35.980469 17.03125 C 34.929688 12.921875 28.09375 11.570312 21.632812 13.859375 C 17.785156 15.226562 13.625 17.359375 10.628906 20.15625 C 7.058594 23.472656 6.488281 26.375 6.726562 27.578125 C 7.558594 31.871094 13.488281 34.667969 15.863281 36.738281 L 15.535156 36.917969 C 14.347656 37.503906 9.824219 39.863281 8.691406 42.363281 C 7.410156 45.1875 8.890625 47.21875 9.878906 47.492188 C 12.929688 48.339844 16.054688 46.820312 17.746094 44.3125 C 19.429688 41.804688 19.226562 38.550781 18.453125 37.066406 L 18.421875 37.011719 L 19.355469 36.464844 C 19.957031 36.109375 20.554688 35.78125 21.074219 35.496094 C 20.78125 36.292969 20.570312 37.230469 20.460938 38.597656 C 20.332031 40.199219 20.992188 42.277344 21.859375 43.101562 C 22.242188 43.457031 22.699219 43.464844 22.984375 43.464844 C 23.988281 43.464844 24.445312 42.636719 24.949219 41.640625 C 25.570312 40.429688 26.117188 39.027344 26.117188 39.027344 C 26.117188 39.027344 25.433594 42.828125 27.304688 42.828125 C 27.992188 42.828125 28.675781 41.941406 28.988281 41.488281 L 28.988281 41.496094 C 28.988281 41.496094 29.003906 41.46875 29.042969 41.402344 C 29.117188 41.292969 29.152344 41.230469 29.152344 41.230469 L 29.152344 41.210938 C 29.425781 40.738281 30.039062 39.652344 30.953125 37.859375 C 32.132812 35.542969 33.265625 32.644531 33.265625 32.644531 C 33.265625 32.644531 33.375 33.355469 33.710938 34.523438 C 33.914062 35.214844 34.351562 35.972656 34.691406 36.710938 L 34.253906 37.3125 L 34.261719 37.320312 C 34.027344 37.628906 33.785156 37.933594 33.539062 38.230469 C 32.605469 39.34375 31.492188 40.613281 31.347656 40.976562 C 31.171875 41.40625 31.207031 41.722656 31.546875 41.980469 C 31.792969 42.160156 32.234375 42.199219 32.699219 42.160156 C 33.539062 42.105469 34.125 41.894531 34.417969 41.769531 C 34.945312 41.582031 35.441406 41.320312 35.894531 40.992188 C 36.808594 40.320312 37.367188 39.363281 37.3125 38.085938 C 37.285156 37.382812 37.058594 36.691406 36.773438 36.035156 L 37.019531 35.671875 C 38.464844 33.5625 39.578125 31.25 39.578125 31.25 C 39.578125 31.25 39.6875 31.960938 40.027344 33.125 C 40.203125 33.71875 40.546875 34.367188 40.859375 35.003906 C 39.507812 36.109375 38.65625 37.382812 38.363281 38.222656 C 37.824219 39.773438 38.246094 40.472656 39.039062 40.636719 C 39.398438 40.710938 39.910156 40.546875 40.292969 40.382812 C 40.769531 40.226562 41.34375 39.964844 41.875 39.570312 C 42.789062 38.898438 43.664062 37.957031 43.621094 36.691406 C 43.59375 36.109375 43.4375 35.53125 43.226562 34.984375 C 44.378906 34.511719 45.867188 34.238281 47.757812 34.464844 C 51.824219 34.941406 52.628906 37.472656 52.472656 38.53125 C 52.316406 39.589844 51.46875 40.171875 51.183594 40.355469 C 50.902344 40.527344 50.808594 40.589844 50.839844 40.71875 C 50.875 40.910156 51.003906 40.902344 51.25 40.863281 C 51.589844 40.808594 53.386719 40 53.460938 38.046875 C 53.570312 35.539062 51.183594 32.804688 46.953125 32.835938 Z M 15.589844 43.382812 C 14.246094 44.851562 12.355469 45.40625 11.550781 44.933594 C 10.683594 44.429688 11.023438 42.269531 12.675781 40.710938 C 13.683594 39.761719 14.988281 38.886719 15.847656 38.351562 L 16.679688 37.847656 C 16.734375 37.8125 16.769531 37.792969 16.769531 37.792969 C 16.835938 37.757812 16.910156 37.710938 16.980469 37.667969 C 17.59375 39.890625 17.007812 41.839844 15.59375 43.382812 Z M 25.417969 36.71875 C 24.949219 37.859375 23.964844 40.785156 23.371094 40.621094 C 22.859375 40.484375 22.546875 38.269531 23.269531 36.082031 C 23.632812 34.976562 24.410156 33.664062 24.867188 33.15625 C 25.609375 32.335938 26.414062 32.0625 26.613281 32.398438 C 26.851562 32.835938 25.707031 36.007812 25.417969 36.71875 Z M 33.523438 40.582031 C 33.320312 40.683594 33.136719 40.757812 33.054688 40.703125 C 32.992188 40.667969 33.136719 40.527344 33.136719 40.527344 C 33.136719 40.527344 34.152344 39.445312 34.554688 38.941406 L 35.351562 37.929688 L 35.351562 38.039062 C 35.351562 39.351562 34.089844 40.226562 33.523438 40.582031 Z M 39.773438 39.160156 C 39.625 39.050781 39.644531 38.714844 40.136719 37.65625 C 40.332031 37.238281 40.769531 36.535156 41.527344 35.871094 C 41.617188 36.144531 41.671875 36.410156 41.664062 36.65625 C 41.65625 38.296875 40.484375 38.90625 39.773438 39.160156 Z M 39.773438 39.160156 " fill-opacity="1" fill-rule="nonzero"/></g></svg>